<mxfile host="app.diagrams.net" modified="2024-11-05T05:05:56.301Z" agent="Mozilla/5.0 (X11; Linux x86_64) AppleWebKit/537.36 (KHTML, like Gecko) Chrome/127.0.0.0 Safari/537.36" etag="SvsjEtrQdK_GG1qO_23w" version="24.6.4" type="device">
  <diagram name="Page-1" id="q_yLwtBkDedCmy-UhOjw">
    <mxGraphModel dx="945" dy="641" grid="1" gridSize="10" guides="1" tooltips="1" connect="1" arrows="1" fold="1" page="1" pageScale="1" pageWidth="850" pageHeight="1100" math="0" shadow="0">
      <root>
        <mxCell id="0" />
        <mxCell id="1" parent="0" />
        <mxCell id="g_0_RAGqeBNEf7PPMLhF-6" style="edgeStyle=orthogonalEdgeStyle;rounded=0;orthogonalLoop=1;jettySize=auto;html=1;entryX=0;entryY=0.5;entryDx=0;entryDy=0;" edge="1" parent="1" source="g_0_RAGqeBNEf7PPMLhF-1" target="g_0_RAGqeBNEf7PPMLhF-4">
          <mxGeometry relative="1" as="geometry" />
        </mxCell>
        <mxCell id="g_0_RAGqeBNEf7PPMLhF-1" value="Reference Model" style="ellipse;whiteSpace=wrap;html=1;fontSize=16;" vertex="1" parent="1">
          <mxGeometry x="140" y="140" width="150" height="60" as="geometry" />
        </mxCell>
        <mxCell id="g_0_RAGqeBNEf7PPMLhF-7" style="edgeStyle=orthogonalEdgeStyle;rounded=0;orthogonalLoop=1;jettySize=auto;html=1;entryX=0;entryY=0.5;entryDx=0;entryDy=0;" edge="1" parent="1" source="g_0_RAGqeBNEf7PPMLhF-3" target="g_0_RAGqeBNEf7PPMLhF-4">
          <mxGeometry relative="1" as="geometry" />
        </mxCell>
        <mxCell id="g_0_RAGqeBNEf7PPMLhF-3" value="Architectural&lt;div style=&quot;font-size: 16px;&quot;&gt;Pattern&lt;/div&gt;" style="rounded=1;whiteSpace=wrap;html=1;fontSize=16;" vertex="1" parent="1">
          <mxGeometry x="140" y="240" width="150" height="60" as="geometry" />
        </mxCell>
        <mxCell id="g_0_RAGqeBNEf7PPMLhF-8" value="" style="edgeStyle=orthogonalEdgeStyle;rounded=0;orthogonalLoop=1;jettySize=auto;html=1;" edge="1" parent="1" source="g_0_RAGqeBNEf7PPMLhF-4" target="g_0_RAGqeBNEf7PPMLhF-5">
          <mxGeometry relative="1" as="geometry" />
        </mxCell>
        <mxCell id="g_0_RAGqeBNEf7PPMLhF-4" value="&lt;font style=&quot;font-size: 16px;&quot;&gt;Reference&lt;/font&gt;&lt;div style=&quot;font-size: 16px;&quot;&gt;&lt;font style=&quot;font-size: 16px;&quot;&gt;Architecture&lt;/font&gt;&lt;/div&gt;" style="rounded=1;whiteSpace=wrap;html=1;" vertex="1" parent="1">
          <mxGeometry x="360" y="190" width="130" height="60" as="geometry" />
        </mxCell>
        <mxCell id="g_0_RAGqeBNEf7PPMLhF-5" value="&lt;font style=&quot;font-size: 16px;&quot;&gt;Software&lt;/font&gt;&lt;div style=&quot;font-size: 16px;&quot;&gt;&lt;font style=&quot;font-size: 16px;&quot;&gt;Architecture&lt;/font&gt;&lt;/div&gt;" style="rounded=1;whiteSpace=wrap;html=1;" vertex="1" parent="1">
          <mxGeometry x="550" y="190" width="130" height="60" as="geometry" />
        </mxCell>
      </root>
    </mxGraphModel>
  </diagram>
</mxfile>
